<mxfile host="app.diagrams.net" modified="2024-06-14T01:27:59.265Z" agent="Mozilla/5.0 (Macintosh; Intel Mac OS X 10_15_7) AppleWebKit/537.36 (KHTML, like Gecko) Chrome/125.0.0.0 Safari/537.36" version="24.4.10" etag="yb-L5tel0tsV369AX_s8" type="github">
  <diagram name="第 1 页" id="D9_SPnmepm_7O1jHDmyj">
    <mxGraphModel>
      <root>
        <mxCell id="0" />
        <mxCell id="1" parent="0" />
      </root>
    </mxGraphModel>
  </diagram>
</mxfile>
